<svg width="22" height="20" viewBox="0 0 22 20" fill="none" xmlns="http://www.w3.org/2000/svg">
<path d="M19.2833 9.66667V9.66674C19.2857 11.3249 18.6695 12.9372 17.5308 14.2544C17.4774 14.3161 17.475 14.4079 17.5273 14.4717C17.5331 14.4789 17.5396 14.4856 17.5466 14.4917L17.5795 14.4541L17.5466 14.4917L21.1529 17.6488C21.2495 17.7336 21.3258 17.8341 21.3777 17.9444C21.4297 18.0547 21.4563 18.1727 21.4563 18.2917C21.4563 18.4107 21.4297 18.5287 21.3777 18.6389C21.3258 18.7492 21.2495 18.8497 21.1529 18.9345L21.1526 18.9348C21.0567 19.0202 20.9424 19.0884 20.816 19.1349C20.6896 19.1815 20.5539 19.2056 20.4167 19.2056C20.2795 19.2056 20.1437 19.1815 20.0173 19.1349C19.8911 19.0884 19.7768 19.0204 19.681 18.935C19.681 18.9349 19.6809 18.9348 19.6808 18.9348L16.2121 15.7314C16.165 15.6879 16.1033 15.6638 16.0392 15.6638C15.9871 15.6638 15.9366 15.6797 15.894 15.7089C14.3981 16.731 12.5595 17.2854 10.6667 17.2833H10.6667C8.96119 17.2833 7.29441 16.8359 5.87717 15.9982C4.45996 15.1605 3.35639 13.9705 2.705 12.5794C2.05366 11.1884 1.88338 9.65815 2.21531 8.18195C2.54727 6.70566 3.36684 5.34866 4.57154 4.28297C5.7763 3.21722 7.31195 2.49087 8.98455 2.19656C10.6572 1.90225 12.3908 2.05334 13.9661 2.63054C15.5413 3.20774 16.8867 4.18485 17.8328 5.43743C18.7789 6.68992 19.2833 8.1617 19.2833 9.66667ZM5.22222 6.44201C4.50173 7.39588 4.11667 8.51807 4.11667 9.66667C4.11667 11.207 4.80845 12.6829 6.03735 13.77C7.26605 14.8569 8.93135 15.4667 10.6667 15.4667C11.9609 15.4667 13.2264 15.1272 14.3033 14.4907C15.3803 13.8541 16.2206 12.9487 16.7172 11.8883C17.2138 10.8277 17.3438 9.66031 17.0906 8.53393C16.8373 7.40764 16.2124 6.37402 15.296 5.56336C14.3797 4.75275 13.2129 4.20128 11.9434 3.97791C10.674 3.75454 9.35812 3.86914 8.16203 4.30742C6.96592 4.74569 5.94264 5.48823 5.22222 6.44201Z" fill="#231F20" stroke="#11170F" stroke-width="0.1"/>
</svg>
